<svg width="201" height="38" viewBox="0 0 201 38" fill="none" xmlns="http://www.w3.org/2000/svg">
<path d="M63.237 22.113V30H59.607V7.98899H68.319C70.827 7.98899 72.763 8.57199 74.127 9.73799C75.513 10.904 76.206 12.642 76.206 14.952C76.206 17.262 75.513 19.033 74.127 20.265C72.763 21.497 70.827 22.113 68.319 22.113H63.237ZM63.237 19.011H67.857C68.803 19.011 69.573 18.912 70.167 18.714C70.761 18.494 71.223 18.197 71.553 17.823C71.883 17.427 72.103 16.998 72.213 16.536C72.345 16.074 72.411 15.59 72.411 15.084C72.411 14.578 72.345 14.083 72.213 13.599C72.103 13.115 71.883 12.686 71.553 12.312C71.223 11.916 70.761 11.608 70.167 11.388C69.573 11.168 68.803 11.058 67.857 11.058H63.237V19.011Z" fill="#36395E"/>
<path d="M80.3893 30V14.952C80.6753 14.776 81.2033 14.534 81.9733 14.226C82.7433 13.918 83.6563 13.654 84.7123 13.434C85.7683 13.192 86.8353 13.071 87.9133 13.071C88.4633 13.071 88.9143 13.115 89.2663 13.203C89.6183 13.291 89.9153 13.39 90.1573 13.5V16.272C89.6513 16.206 89.1233 16.162 88.5733 16.14C88.0233 16.096 87.4733 16.096 86.9233 16.14C86.3733 16.162 85.8343 16.206 85.3063 16.272C84.7783 16.338 84.2943 16.404 83.8543 16.47V30H80.3893Z" fill="#36395E"/>
<path d="M99.7626 30.495C97.0786 30.495 95.0766 29.736 93.7566 28.218C92.4586 26.7 91.8096 24.533 91.8096 21.717C91.8096 18.725 92.4806 16.536 93.8226 15.15C95.1866 13.742 97.1446 13.038 99.6966 13.038C101.523 13.038 103.03 13.379 104.218 14.061C105.406 14.721 106.286 15.7 106.858 16.998C107.43 18.296 107.716 19.869 107.716 21.717C107.716 24.511 107.023 26.678 105.637 28.218C104.273 29.736 102.315 30.495 99.7626 30.495ZM99.7296 27.558C100.852 27.558 101.743 27.316 102.403 26.832C103.063 26.326 103.536 25.633 103.822 24.753C104.13 23.873 104.284 22.861 104.284 21.717C104.284 20.441 104.13 19.374 103.822 18.516C103.514 17.658 103.03 17.02 102.37 16.602C101.71 16.162 100.83 15.942 99.7296 15.942C98.6296 15.942 97.7496 16.173 97.0896 16.635C96.4296 17.097 95.9566 17.757 95.6706 18.615C95.3846 19.473 95.2416 20.507 95.2416 21.717C95.2416 23.543 95.5826 24.973 96.2646 26.007C96.9466 27.041 98.1016 27.558 99.7296 27.558Z" fill="#36395E"/>
<path d="M119.303 30.462C118.885 30.462 118.368 30.407 117.752 30.297C117.136 30.209 116.52 30.066 115.904 29.868C115.288 29.648 114.749 29.362 114.287 29.01L115.178 27.888V36.633H111.746V16.635C111.746 15.953 111.955 15.381 112.373 14.919C112.813 14.457 113.385 14.094 114.089 13.83C114.793 13.544 115.563 13.346 116.399 13.236C117.257 13.104 118.104 13.038 118.94 13.038C120.414 13.038 121.756 13.313 122.966 13.863C124.176 14.413 125.144 15.348 125.87 16.668C126.596 17.966 126.959 19.748 126.959 22.014C126.959 23.73 126.662 25.226 126.068 26.502C125.474 27.756 124.605 28.735 123.461 29.439C122.317 30.121 120.931 30.462 119.303 30.462ZM118.676 27.558C119.732 27.558 120.612 27.338 121.316 26.898C122.02 26.458 122.548 25.82 122.9 24.984C123.252 24.148 123.428 23.136 123.428 21.948C123.428 20.848 123.296 19.847 123.032 18.945C122.79 18.043 122.339 17.339 121.679 16.833C121.019 16.305 120.073 16.041 118.841 16.041C117.741 16.041 116.85 16.162 116.168 16.404C115.508 16.624 115.178 16.954 115.178 17.394V26.601C115.75 26.909 116.333 27.151 116.927 27.327C117.521 27.481 118.104 27.558 118.676 27.558Z" fill="#36395E"/>
<path d="M130.953 30V6.43799H134.418V15.909L133.395 15.051C134.253 14.457 135.199 13.984 136.233 13.632C137.289 13.258 138.312 13.071 139.302 13.071C140.6 13.071 141.711 13.302 142.635 13.764C143.559 14.204 144.274 14.919 144.78 15.909C145.308 16.877 145.572 18.153 145.572 19.737V30H142.107V20.166C142.107 18.824 141.788 17.801 141.15 17.097C140.512 16.393 139.566 16.041 138.312 16.041C137.652 16.041 136.981 16.14 136.299 16.338C135.639 16.536 135.012 16.8 134.418 17.13L134.385 30H130.953Z" fill="#36395E"/>
<path d="M157.578 30.495C155.95 30.495 154.531 30.165 153.321 29.505C152.133 28.845 151.209 27.866 150.549 26.568C149.911 25.27 149.592 23.686 149.592 21.816C149.592 18.934 150.263 16.756 151.605 15.282C152.969 13.786 154.861 13.038 157.281 13.038C159.063 13.038 160.504 13.434 161.604 14.226C162.704 15.018 163.496 16.129 163.98 17.559C164.486 18.967 164.728 20.617 164.706 22.509H151.671L151.572 19.935H162.066L161.241 20.76C161.175 19.066 160.823 17.834 160.185 17.064C159.547 16.272 158.546 15.876 157.182 15.876C156.302 15.876 155.554 16.063 154.938 16.437C154.322 16.789 153.849 17.405 153.519 18.285C153.211 19.143 153.057 20.331 153.057 21.849C153.057 23.697 153.486 25.105 154.344 26.073C155.202 27.019 156.467 27.492 158.139 27.492C158.887 27.492 159.58 27.426 160.218 27.294C160.878 27.162 161.483 26.997 162.033 26.799C162.583 26.579 163.056 26.37 163.452 26.172V29.373C162.682 29.703 161.813 29.967 160.845 30.165C159.877 30.385 158.788 30.495 157.578 30.495Z" fill="#36395E"/>
<path d="M175.983 30.33C174.971 30.33 173.981 30.187 173.013 29.901C172.045 29.615 171.165 29.153 170.373 28.515C169.603 27.855 168.987 26.986 168.525 25.908C168.063 24.808 167.832 23.444 167.832 21.816C167.832 20.144 168.052 18.747 168.492 17.625C168.932 16.503 169.537 15.612 170.307 14.952C171.077 14.27 171.946 13.786 172.914 13.5C173.904 13.214 174.916 13.071 175.95 13.071C176.83 13.071 177.71 13.159 178.59 13.335C179.47 13.489 180.284 13.731 181.032 14.061V17.163C180.284 16.833 179.536 16.58 178.788 16.404C178.04 16.206 177.259 16.107 176.445 16.107C174.729 16.107 173.431 16.536 172.551 17.394C171.693 18.252 171.264 19.638 171.264 21.552C171.264 23.532 171.671 24.984 172.485 25.908C173.321 26.81 174.674 27.261 176.544 27.261C177.358 27.261 178.15 27.162 178.92 26.964C179.69 26.744 180.405 26.48 181.065 26.172V29.274C180.295 29.626 179.492 29.89 178.656 30.066C177.82 30.242 176.929 30.33 175.983 30.33Z" fill="#36395E"/>
<path d="M187.635 36.402C187.217 36.402 186.821 36.358 186.447 36.27C186.073 36.204 185.743 36.116 185.457 36.006V33.036C185.721 33.124 185.985 33.201 186.249 33.267C186.513 33.333 186.799 33.366 187.107 33.366C187.767 33.366 188.06 32.852 188.5 32.5C188.94 32.148 189.571 31.98 189.879 31.32C190.187 30.66 190.44 29.868 190.638 28.944L190.704 30.66L183.642 13.434H187.569L192.354 26.502H191.859L196.578 13.434H200.175L193.344 31.023C192.794 32.431 192.2 33.52 191.562 34.29C190.924 35.082 190.264 35.632 189.582 35.94C188.922 36.248 188.273 36.402 187.635 36.402Z" fill="#36395E"/>
<path fill-rule="evenodd" clip-rule="evenodd" d="M130.453 5.93799H134.918V13.6156C135.289 13.4464 135.673 13.2944 136.069 13.1596C137.17 12.7698 138.249 12.571 139.302 12.571C140.656 12.571 141.846 12.8116 142.854 13.3147C143.882 13.8054 144.671 14.6011 145.222 15.6755C145.801 16.7412 146.072 18.1066 146.072 19.737V30.5H141.607V20.166C141.607 18.8971 141.305 18.0129 140.779 17.4327C140.264 16.864 139.472 16.541 138.312 16.541C137.703 16.541 137.08 16.6321 136.44 16.8176C135.909 16.977 135.402 17.1812 134.917 17.4301L134.883 30.5H130.453V5.93799ZM133.918 14.1292V6.93799H131.453V29.5H133.886L133.918 16.8354L134.175 16.6929C134.255 16.6481 134.337 16.6045 134.418 16.5621L132.571 15.0129L133.11 14.6399C133.372 14.4588 133.641 14.2886 133.918 14.1292ZM134.918 16.3202V14.7249C135.386 14.4875 135.878 14.2809 136.394 14.1053L136.4 14.1033C137.409 13.7458 138.376 13.571 139.302 13.571C140.542 13.571 141.572 13.7917 142.411 14.2112L142.42 14.2154C143.236 14.604 143.874 15.2355 144.335 16.1365L144.341 16.1484C144.815 17.0179 145.072 18.2024 145.072 19.737V29.5H142.607V20.166C142.607 18.7509 142.27 17.5891 141.52 16.7612C140.76 15.9219 139.659 15.541 138.312 15.541C137.601 15.541 136.883 15.6477 136.159 15.8578L136.155 15.8591C135.73 15.9866 135.317 16.1403 134.918 16.3202ZM59.107 7.48899H68.319C70.8982 7.48899 72.9656 8.08822 74.4503 9.35661C75.978 10.6426 76.706 12.5391 76.706 14.952C76.706 17.3662 75.9777 19.2881 74.4606 20.6374C72.9759 21.9776 70.9044 22.613 68.319 22.613H63.737V30.5H59.107V7.48899ZM60.107 8.48899H68.319C70.7549 8.48899 72.5589 9.05534 73.8021 10.1181L73.8051 10.1206C75.0484 11.1666 75.706 12.7457 75.706 14.952C75.706 17.157 75.0487 18.7767 73.7948 19.8913L73.7919 19.8939C72.5487 21.0168 70.7487 21.613 68.319 21.613H62.737V29.5H60.107V8.48899ZM62.737 10.558H67.857C68.8359 10.558 69.6708 10.671 70.3407 10.9191C70.9955 11.1616 71.5355 11.5123 71.9325 11.9864C72.3127 12.4189 72.5692 12.9181 72.6981 13.4776C72.8401 14.0016 72.911 14.5375 72.911 15.084C72.911 15.6302 72.8402 16.157 72.6968 16.6628C72.5665 17.2019 72.3097 17.696 71.9371 18.1431L71.9281 18.1539C71.5306 18.6044 70.9917 18.9417 70.3407 19.1829L70.3329 19.1857L70.3251 19.1883C69.6611 19.4097 68.8322 19.511 67.857 19.511H62.737V10.558ZM63.737 11.558V18.511H67.857C68.7693 18.511 69.4778 18.4153 70.0011 18.2422C70.5309 18.0449 70.9123 17.7913 71.1735 17.4974C71.4557 17.1571 71.6364 16.7988 71.7266 16.4202L71.7292 16.4093L71.7322 16.3986C71.8508 15.9836 71.911 15.546 71.911 15.084C71.911 14.622 71.8508 14.1713 71.7306 13.7305L71.7278 13.7202L71.7254 13.7098C71.6341 13.3078 71.453 12.9544 71.1781 12.6428L71.1687 12.6322C70.9061 12.3171 70.524 12.0534 69.9933 11.8569C69.4752 11.665 68.7701 11.558 67.857 11.558H63.737ZM99.6966 13.538C97.2372 13.538 95.4255 14.214 94.1818 15.4978C92.969 16.7504 92.3096 18.7854 92.3096 21.717C92.3096 24.4612 92.9421 26.4951 94.1353 27.8915C95.3313 29.2658 97.1732 29.995 99.7626 29.995C102.211 29.995 104.018 29.2709 105.265 27.8838C106.543 26.4636 107.216 24.4311 107.216 21.717C107.216 19.9183 106.937 18.418 106.4 17.1996C105.87 15.9967 105.063 15.1027 103.975 14.4981L103.969 14.4947C102.878 13.8683 101.463 13.538 99.6966 13.538ZM93.4635 14.8021C94.9477 13.2699 97.052 12.538 99.6966 12.538C101.58 12.538 103.179 12.8892 104.464 13.6257C105.75 14.3411 106.702 15.4044 107.315 16.7964C107.922 18.174 108.216 19.8197 108.216 21.717C108.216 24.5907 107.502 26.8924 106.008 28.5522C104.527 30.2011 102.418 30.995 99.7626 30.995C96.985 30.995 94.8233 30.2067 93.3793 28.5461L93.3766 28.5429C91.9746 26.9034 91.3096 24.6038 91.3096 21.717C91.3096 18.6646 91.9923 16.3215 93.4635 14.8021ZM118.94 13.538C118.13 13.538 117.309 13.6019 116.475 13.7302L116.464 13.7318C115.666 13.8369 114.937 14.0249 114.277 14.2932L114.264 14.2983C113.621 14.5396 113.118 14.8628 112.739 15.259C112.415 15.6193 112.246 16.0667 112.246 16.635V36.133H114.678V29.8618C114.432 29.7245 114.201 29.5732 113.984 29.4077L113.578 29.0985L115.132 27.1417C115.068 27.1089 115.004 27.0755 114.941 27.0412L114.678 26.8996V17.394C114.678 16.6235 115.282 16.1733 116.005 15.9312C116.76 15.664 117.712 15.541 118.841 15.541C120.134 15.541 121.206 15.8166 121.987 16.4393C122.741 17.0192 123.246 17.8197 123.513 18.8099C123.791 19.7631 123.928 20.8105 123.928 21.948C123.928 23.183 123.745 24.2648 123.361 25.178C122.972 26.0998 122.38 26.8223 121.581 27.322C120.778 27.8235 119.8 28.058 118.676 28.058C118.058 28.058 117.433 27.9748 116.801 27.811L116.793 27.8088L116.785 27.8064C116.411 27.6956 116.042 27.5603 115.678 27.4008V29.2418C115.802 29.2958 115.931 29.3467 116.064 29.3944C116.652 29.5829 117.238 29.7185 117.822 29.802L117.831 29.8032L117.84 29.8048C118.439 29.9119 118.925 29.962 119.303 29.962C120.859 29.962 122.151 29.6367 123.202 29.0114C124.258 28.3604 125.061 27.4575 125.615 26.29C126.172 25.0931 126.459 23.6723 126.459 22.014C126.459 19.7924 126.101 18.1064 125.433 16.9121L125.432 16.9089C124.75 15.6702 123.858 14.8177 122.759 14.3182C121.621 13.8008 120.35 13.538 118.94 13.538ZM115.678 30.3179V37.133H111.246V16.635C111.246 15.8417 111.493 15.1465 112.002 14.5835L112.011 14.574C112.51 14.0499 113.147 13.6499 113.907 13.3642C114.651 13.0626 115.459 12.8558 116.328 12.741C117.208 12.6058 118.079 12.538 118.94 12.538C120.477 12.538 121.891 12.8252 123.173 13.4078C124.493 14.0081 125.537 15.0252 126.307 16.4258C127.09 17.8273 127.459 19.7047 127.459 22.014C127.459 23.7872 127.152 25.3581 126.521 26.713L126.52 26.716C125.886 28.0545 124.952 29.1083 123.723 29.8648L123.717 29.8685C122.48 30.6059 121.001 30.962 119.303 30.962C118.847 30.962 118.301 30.9026 117.672 30.7907C117.03 30.6985 116.39 30.5494 115.751 30.344L115.743 30.3416L115.736 30.3389C115.716 30.332 115.697 30.325 115.678 30.3179ZM115.678 26.297C116.133 26.5239 116.594 26.7064 117.061 26.8451C117.614 26.9878 118.152 27.058 118.676 27.058C119.663 27.058 120.445 26.8525 121.051 26.474C121.659 26.0937 122.123 25.5402 122.439 24.79C122.758 24.0312 122.928 23.089 122.928 21.948C122.928 20.8876 122.8 19.9348 122.552 19.0854L122.549 19.0746C122.332 18.2652 121.936 17.6606 121.374 17.2298L121.366 17.2235C120.828 16.7925 120.01 16.541 118.841 16.541C117.771 16.541 116.943 16.6595 116.335 16.8752L116.326 16.8784C115.731 17.0766 115.678 17.2861 115.678 17.394V26.297ZM151.975 15.6186C153.225 14.2469 151.443 15.6186 152.152 15.6186H151.975ZM151.235 14.9451C152.712 13.325 154.75 12.538 157.281 12.538C159.135 12.538 160.688 12.9502 161.896 13.8202C163.089 14.6792 163.938 15.8795 164.452 17.3945C164.982 18.8701 165.228 20.5803 165.206 22.5148L165.2 23.009H153.623C153.767 24.1938 154.143 25.0918 154.716 25.7392C155.452 26.5495 156.563 26.992 158.139 26.992C158.858 26.992 159.516 26.9285 160.117 26.8044L160.12 26.8037C160.756 26.6765 161.334 26.5187 161.855 26.3315C162.393 26.1163 162.85 25.914 163.228 25.7248L163.952 25.363V29.7027L163.649 29.8326C162.844 30.1774 161.944 30.4503 160.95 30.6538C159.94 30.8828 158.815 30.995 157.578 30.995C155.881 30.995 154.377 30.6507 153.081 29.9439L153.078 29.9421C151.797 29.2302 150.805 28.1747 150.103 26.7946L150.1 26.7885C149.42 25.4048 149.092 23.7408 149.092 21.816C149.092 18.8644 149.779 16.545 151.235 14.9451ZM153.558 22.009H164.205C164.183 20.3708 163.947 18.9464 163.509 17.7281L163.506 17.7193C163.052 16.3763 162.318 15.356 161.312 14.6318C160.32 13.9177 153.862 15.6186 152.152 15.6186M153.558 22.009C153.557 21.9561 153.557 21.9028 153.557 21.849C153.557 21.3339 153.575 20.8629 153.61 20.435H160.723C160.731 20.547 160.737 20.6618 160.741 20.7795L160.786 21.9222L163.273 19.435H161.622C161.454 18.3134 161.115 17.4044 160.572 16.7475C159.809 15.8025 158.641 15.376 157.182 15.376C156.233 15.376 155.393 15.5775 154.684 16.0062C153.941 16.433 153.407 17.1585 153.051 18.1094L153.048 18.1161C152.91 18.5023 152.802 18.9427 152.723 19.435H151.052L151.19 23.009H152.617C152.767 24.3972 153.205 25.5423 153.97 26.4046L153.973 26.4089C154.953 27.4892 156.372 27.992 158.139 27.992C158.915 27.992 159.642 27.9236 160.317 27.784C160.998 27.6479 161.626 27.4768 162.202 27.2694L162.21 27.2665L162.218 27.2632C162.479 27.1591 162.723 27.057 162.952 26.9567V29.0376C162.293 29.2957 161.558 29.5087 160.745 29.6751L160.734 29.6774C159.809 29.8876 158.758 29.995 157.578 29.995C156.019 29.995 154.686 29.6796 153.562 29.067C152.469 28.4593 151.614 27.558 150.996 26.3442C150.401 25.1325 150.092 23.6295 150.092 21.816C150.092 19.0038 150.747 16.9667 151.975 15.6186M153.737 19.435H160.61C160.453 18.5061 160.173 17.8335 159.8 17.383L159.795 17.3777C159.282 16.7406 158.45 16.376 157.182 16.376C156.373 16.376 155.719 16.5474 155.197 16.8644L155.186 16.8713C154.701 17.1485 154.291 17.6526 153.988 18.4572C153.888 18.7383 153.803 19.0637 153.737 19.435ZM152.607 20.435C152.573 20.8751 152.557 21.3467 152.557 21.849C152.557 21.9026 152.557 21.9559 152.558 22.009H152.152L152.091 20.435H152.607ZM87.9133 13.571C86.873 13.571 85.8435 13.6877 84.8239 13.9214L84.8143 13.9236C83.7788 14.1393 82.8952 14.3957 82.159 14.6902C81.5858 14.9195 81.1672 15.1045 80.8893 15.2463V29.5H83.3543V16.0394L83.7801 15.9755C84.2248 15.9088 84.7129 15.8423 85.2442 15.7759C85.7835 15.7084 86.3332 15.6635 86.8934 15.6408C87.4633 15.5957 88.0333 15.5957 88.6031 15.6408C88.963 15.6554 89.3144 15.6792 89.6573 15.7122V13.8389C89.5078 13.7867 89.3375 13.7362 89.145 13.6881C88.8474 13.6137 88.4411 13.571 87.9133 13.571ZM84.6054 12.9455C85.6963 12.6959 86.7991 12.571 87.9133 12.571C88.4855 12.571 88.9811 12.6163 89.3875 12.7179C89.7591 12.8108 90.0867 12.9187 90.3642 13.0448L90.6573 13.178V16.8414L90.0926 16.7678C89.6025 16.7039 89.0895 16.661 88.5533 16.6396L88.5433 16.6392L88.5334 16.6384C88.0099 16.5965 87.4866 16.5965 86.9631 16.6384L86.9532 16.6392L86.9432 16.6396C86.4068 16.661 85.8819 16.7039 85.3683 16.7681C85.0093 16.813 84.6713 16.8578 84.3543 16.9025V30.5H79.8893V14.6726L80.1272 14.5262C80.4538 14.3252 81.0184 14.0694 81.7876 13.7618C82.5901 13.4407 83.5309 13.1696 84.6054 12.9455ZM175.95 13.571C174.963 13.571 173.998 13.7073 173.054 13.98C172.158 14.2449 171.354 14.6922 170.639 15.3263L170.632 15.3317C169.935 15.9292 169.373 16.7474 168.958 17.8075C168.547 18.8536 168.332 20.184 168.332 21.816C168.332 23.3994 168.557 24.6923 168.985 25.7128C169.421 26.7278 169.992 27.5283 170.693 28.1304C171.433 28.7252 172.252 29.1549 173.155 29.4215C174.077 29.6939 175.019 29.83 175.983 29.83C176.898 29.83 177.754 29.7449 178.553 29.5767C179.248 29.4304 179.918 29.2207 180.565 28.9477V26.9325C180.086 27.1238 179.583 27.2945 179.057 27.4448L179.045 27.4484C178.233 27.6571 177.399 27.761 176.544 27.761C174.607 27.761 173.089 27.2949 172.118 26.2479L172.11 26.2386C171.179 25.1819 170.764 23.5839 170.764 21.552C170.764 19.5795 171.204 18.0341 172.197 17.0404L172.202 17.036C173.207 16.056 174.651 15.607 176.445 15.607C177.298 15.607 178.119 15.7104 178.909 15.9189C179.451 16.0468 179.992 16.2132 180.532 16.4177V14.3933C179.906 14.1438 179.231 13.9547 178.504 13.8275L178.492 13.8254C177.644 13.6558 176.796 13.571 175.95 13.571ZM172.775 13.0196C173.811 12.7206 174.869 12.571 175.95 12.571C176.862 12.571 177.772 12.662 178.682 12.8435C179.596 13.0039 180.447 13.2565 181.234 13.6035L181.532 13.7351V17.9301L180.83 17.6204C180.109 17.3021 179.39 17.0592 178.674 16.8907L178.66 16.8875C177.956 16.7011 177.218 16.607 176.445 16.607C174.809 16.607 173.657 17.0152 172.902 17.7498C172.181 18.4725 171.764 19.6984 171.764 21.552C171.764 23.4763 172.162 24.7811 172.856 25.5728C173.558 26.3268 174.745 26.761 176.544 26.761C177.315 26.761 178.063 26.6676 178.789 26.4814C179.534 26.2683 180.222 26.0138 180.854 25.7189L181.565 25.3869V29.5952L181.273 29.7287C180.469 30.0962 179.631 30.3717 178.759 30.5553C177.886 30.7391 176.96 30.83 175.983 30.83C174.923 30.83 173.885 30.6801 172.871 30.3805C171.84 30.0758 170.902 29.583 170.059 28.9044L170.053 28.8996L170.048 28.8946C169.211 28.1776 168.553 27.2423 168.065 26.1049L168.064 26.1016C167.569 24.9223 167.332 23.4877 167.332 21.816C167.332 20.104 167.557 18.6404 168.027 17.4424C168.49 16.26 169.137 15.297 169.979 14.5749C170.802 13.8468 171.734 13.3272 172.772 13.0205L172.775 13.0196ZM182.897 12.934H187.919L192.102 24.3583L196.227 12.934H200.906L193.81 31.204C193.25 32.6375 192.633 33.7802 191.949 34.6064C191.28 35.4363 190.563 36.0449 189.791 36.3944C189.075 36.7281 188.355 36.902 187.635 36.902C187.187 36.902 186.757 36.8553 186.347 36.76C185.953 36.6899 185.596 36.5951 185.278 36.4727L184.957 36.3494V32.3423L185.615 32.5616C185.867 32.6457 186.119 32.7191 186.37 32.7819C186.59 32.8368 186.835 32.866 187.107 32.866C187.674 32.866 188.108 32.7169 188.445 32.4476C188.81 32.1555 189.141 31.7185 189.426 31.1085C189.588 30.7618 189.735 30.3718 189.868 29.9377L182.897 12.934ZM190.511 28.8705L184.388 13.934H187.22L191.573 25.8226L191.147 27.002H193.07L192.637 25.8202L196.929 13.934H199.445L192.878 30.8411M190.648 30.7614L191.204 30.6408L191.138 28.9248L190.511 28.8705M190.648 30.7614C190.55 31.033 190.445 31.2897 190.332 31.5314C190.001 32.2414 189.515 32.588 189 33C188.457 33.4347 187.86 33.866 187.107 33.866C186.764 33.866 186.436 33.8292 186.128 33.7521C186.071 33.7378 186.014 33.5152 185.957 33.5V35.6462M96.8029 16.2254C97.5726 15.6866 98.5636 15.442 99.7296 15.442C100.889 15.442 101.875 15.6728 102.642 16.1828C103.409 16.6699 103.954 17.4046 104.292 18.3471C104.626 19.2762 104.784 20.4046 104.784 21.717C104.784 22.9027 104.624 23.9705 104.295 24.9128C103.982 25.8753 103.455 26.6554 102.707 27.2288L102.698 27.2353C101.926 27.8017 100.919 28.058 99.7296 28.058C97.9925 28.058 96.6501 27.4995 95.8472 26.2823C95.0914 25.1364 94.7416 23.5971 94.7416 21.717C94.7416 20.4702 94.8886 19.3798 95.1962 18.4569C95.5118 17.5102 96.0443 16.7564 96.8029 16.2254ZM99.7296 16.442C98.6955 16.442 97.9266 16.6594 97.3763 17.0446C96.8149 17.4376 96.4014 18.0038 96.1449 18.7731C95.8806 19.5662 95.7416 20.5438 95.7416 21.717C95.7416 23.4889 96.0738 24.8096 96.682 25.7317C97.2431 26.5824 98.2107 27.058 99.7296 27.058C100.781 27.058 101.555 26.8315 102.103 26.4319C102.671 25.9946 103.088 25.3915 103.346 24.5984L103.35 24.5878C103.635 23.7714 103.784 22.8171 103.784 21.717C103.784 20.4773 103.633 19.4718 103.351 18.6849C103.074 17.9134 102.653 17.3733 102.102 17.0244L102.092 17.0181C101.54 16.6503 100.768 16.442 99.7296 16.442Z" fill="#36395E"/>
<path fill-rule="evenodd" clip-rule="evenodd" d="M15.3806 18.5646V35.7703H11.3806V18.5646H15.3806Z" fill="#00CBD5"/>
<path fill-rule="evenodd" clip-rule="evenodd" d="M21.8234 8V35.7703H17.8234V8H21.8234Z" fill="#AF81CF"/>
<path fill-rule="evenodd" clip-rule="evenodd" d="M28.2662 22.5263V35.7703H24.2662V22.5263H28.2662Z" fill="#049DF8"/>
<path fill-rule="evenodd" clip-rule="evenodd" d="M34.709 17.244V35.7703H30.709V17.244H34.709Z" fill="#EF8F0A"/>
<path fill-rule="evenodd" clip-rule="evenodd" d="M6 4C4.89543 4 4 4.89543 4 6V30C4 31.1046 4.89543 32 6 32H8.5V36H6C2.68629 36 0 33.3137 0 30V6C0 2.68629 2.68629 0 6 0H40C43.3137 0 46 2.68629 46 6V30C46 33.3137 43.3137 36 40 36H37V32H40C41.1046 32 42 31.1046 42 30V6C42 4.89543 41.1046 4 40 4H6Z" fill="#686CE7"/>
</svg>
